<mxfile host="app.diagrams.net" agent="Mozilla/5.0 (Windows NT 10.0; Win64; x64) AppleWebKit/537.36 (KHTML, like Gecko) Chrome/130.0.0.0 Safari/537.36 Edg/130.0.0.0" version="24.8.0">
  <diagram name="Página-1" id="bXCs3kC6eJ32azaC67L6">
    <mxGraphModel dx="815" dy="451" grid="1" gridSize="10" guides="1" tooltips="1" connect="1" arrows="1" fold="1" page="1" pageScale="1" pageWidth="827" pageHeight="1169" math="0" shadow="0">
      <root>
        <mxCell id="0" />
        <mxCell id="1" parent="0" />
        <mxCell id="bad-gQFQ_26xyxKBLIDS-2" value="Início" style="strokeWidth=2;html=1;shape=mxgraph.flowchart.terminator;whiteSpace=wrap;" vertex="1" parent="1">
          <mxGeometry x="320" y="50" width="140" height="50" as="geometry" />
        </mxCell>
        <mxCell id="bad-gQFQ_26xyxKBLIDS-8" value="" style="edgeStyle=orthogonalEdgeStyle;rounded=0;orthogonalLoop=1;jettySize=auto;html=1;" edge="1" parent="1" source="bad-gQFQ_26xyxKBLIDS-3" target="bad-gQFQ_26xyxKBLIDS-7">
          <mxGeometry relative="1" as="geometry" />
        </mxCell>
        <mxCell id="bad-gQFQ_26xyxKBLIDS-3" value="Analisar variáveis S,C,V,D" style="html=1;strokeWidth=2;shape=manualInput;whiteSpace=wrap;rounded=1;size=26;arcSize=11;fontSize=8;" vertex="1" parent="1">
          <mxGeometry x="340" y="120" width="100" height="60" as="geometry" />
        </mxCell>
        <mxCell id="bad-gQFQ_26xyxKBLIDS-6" style="edgeStyle=orthogonalEdgeStyle;rounded=0;orthogonalLoop=1;jettySize=auto;html=1;exitX=0.5;exitY=1;exitDx=0;exitDy=0;exitPerimeter=0;entryX=0.49;entryY=0.226;entryDx=0;entryDy=0;entryPerimeter=0;" edge="1" parent="1" source="bad-gQFQ_26xyxKBLIDS-2" target="bad-gQFQ_26xyxKBLIDS-3">
          <mxGeometry relative="1" as="geometry">
            <mxPoint x="390" y="130" as="targetPoint" />
          </mxGeometry>
        </mxCell>
        <mxCell id="bad-gQFQ_26xyxKBLIDS-11" value="" style="edgeStyle=orthogonalEdgeStyle;rounded=0;orthogonalLoop=1;jettySize=auto;html=1;" edge="1" parent="1" source="bad-gQFQ_26xyxKBLIDS-7" target="bad-gQFQ_26xyxKBLIDS-10">
          <mxGeometry relative="1" as="geometry" />
        </mxCell>
        <mxCell id="bad-gQFQ_26xyxKBLIDS-17" value="" style="edgeStyle=orthogonalEdgeStyle;rounded=0;orthogonalLoop=1;jettySize=auto;html=1;" edge="1" parent="1" source="bad-gQFQ_26xyxKBLIDS-7" target="bad-gQFQ_26xyxKBLIDS-13">
          <mxGeometry relative="1" as="geometry" />
        </mxCell>
        <mxCell id="bad-gQFQ_26xyxKBLIDS-22" value="" style="edgeStyle=orthogonalEdgeStyle;rounded=0;orthogonalLoop=1;jettySize=auto;html=1;" edge="1" parent="1" source="bad-gQFQ_26xyxKBLIDS-7" target="bad-gQFQ_26xyxKBLIDS-21">
          <mxGeometry relative="1" as="geometry" />
        </mxCell>
        <mxCell id="bad-gQFQ_26xyxKBLIDS-7" value="Se variável == S" style="strokeWidth=2;html=1;shape=mxgraph.flowchart.decision;whiteSpace=wrap;" vertex="1" parent="1">
          <mxGeometry x="335" y="210" width="110" height="60" as="geometry" />
        </mxCell>
        <mxCell id="bad-gQFQ_26xyxKBLIDS-19" value="" style="edgeStyle=orthogonalEdgeStyle;rounded=0;orthogonalLoop=1;jettySize=auto;html=1;" edge="1" parent="1" source="bad-gQFQ_26xyxKBLIDS-9" target="bad-gQFQ_26xyxKBLIDS-15">
          <mxGeometry relative="1" as="geometry" />
        </mxCell>
        <mxCell id="bad-gQFQ_26xyxKBLIDS-33" value="" style="edgeStyle=orthogonalEdgeStyle;rounded=0;orthogonalLoop=1;jettySize=auto;html=1;" edge="1" parent="1" source="bad-gQFQ_26xyxKBLIDS-9" target="bad-gQFQ_26xyxKBLIDS-24">
          <mxGeometry relative="1" as="geometry" />
        </mxCell>
        <mxCell id="bad-gQFQ_26xyxKBLIDS-9" value="Se variável == V" style="strokeWidth=2;html=1;shape=mxgraph.flowchart.decision;whiteSpace=wrap;" vertex="1" parent="1">
          <mxGeometry x="335" y="450" width="110" height="60" as="geometry" />
        </mxCell>
        <mxCell id="bad-gQFQ_26xyxKBLIDS-18" value="" style="edgeStyle=orthogonalEdgeStyle;rounded=0;orthogonalLoop=1;jettySize=auto;html=1;" edge="1" parent="1" source="bad-gQFQ_26xyxKBLIDS-10" target="bad-gQFQ_26xyxKBLIDS-16">
          <mxGeometry relative="1" as="geometry" />
        </mxCell>
        <mxCell id="bad-gQFQ_26xyxKBLIDS-31" value="" style="edgeStyle=orthogonalEdgeStyle;rounded=0;orthogonalLoop=1;jettySize=auto;html=1;" edge="1" parent="1" source="bad-gQFQ_26xyxKBLIDS-10" target="bad-gQFQ_26xyxKBLIDS-23">
          <mxGeometry relative="1" as="geometry" />
        </mxCell>
        <mxCell id="bad-gQFQ_26xyxKBLIDS-10" value="Se variável == C" style="strokeWidth=2;html=1;shape=mxgraph.flowchart.decision;whiteSpace=wrap;" vertex="1" parent="1">
          <mxGeometry x="335" y="290" width="110" height="60" as="geometry" />
        </mxCell>
        <mxCell id="bad-gQFQ_26xyxKBLIDS-37" style="edgeStyle=orthogonalEdgeStyle;rounded=0;orthogonalLoop=1;jettySize=auto;html=1;exitX=1;exitY=0.5;exitDx=0;exitDy=0;exitPerimeter=0;entryX=1;entryY=0;entryDx=0;entryDy=0;" edge="1" parent="1" source="bad-gQFQ_26xyxKBLIDS-13" target="bad-gQFQ_26xyxKBLIDS-35">
          <mxGeometry relative="1" as="geometry" />
        </mxCell>
        <mxCell id="bad-gQFQ_26xyxKBLIDS-13" value="Imprimir &quot;solteiro&quot;" style="shape=display;whiteSpace=wrap;html=1;fontSize=11;" vertex="1" parent="1">
          <mxGeometry x="480" y="225" width="70" height="30" as="geometry" />
        </mxCell>
        <mxCell id="bad-gQFQ_26xyxKBLIDS-39" style="edgeStyle=orthogonalEdgeStyle;rounded=0;orthogonalLoop=1;jettySize=auto;html=1;exitX=1;exitY=0.5;exitDx=0;exitDy=0;exitPerimeter=0;entryX=1;entryY=1;entryDx=0;entryDy=0;" edge="1" parent="1" source="bad-gQFQ_26xyxKBLIDS-14" target="bad-gQFQ_26xyxKBLIDS-35">
          <mxGeometry relative="1" as="geometry" />
        </mxCell>
        <mxCell id="bad-gQFQ_26xyxKBLIDS-14" value="Imprimir &quot;divorciado&quot;" style="shape=display;whiteSpace=wrap;html=1;fontSize=10;" vertex="1" parent="1">
          <mxGeometry x="490" y="555" width="70" height="30" as="geometry" />
        </mxCell>
        <mxCell id="bad-gQFQ_26xyxKBLIDS-38" style="edgeStyle=orthogonalEdgeStyle;rounded=0;orthogonalLoop=1;jettySize=auto;html=1;exitX=1;exitY=0.5;exitDx=0;exitDy=0;exitPerimeter=0;entryX=0.5;entryY=1;entryDx=0;entryDy=0;" edge="1" parent="1" source="bad-gQFQ_26xyxKBLIDS-15" target="bad-gQFQ_26xyxKBLIDS-35">
          <mxGeometry relative="1" as="geometry" />
        </mxCell>
        <mxCell id="bad-gQFQ_26xyxKBLIDS-15" value="Imprimir &quot;viúvo&quot;" style="shape=display;whiteSpace=wrap;html=1;fontSize=11;" vertex="1" parent="1">
          <mxGeometry x="480" y="465" width="70" height="30" as="geometry" />
        </mxCell>
        <mxCell id="bad-gQFQ_26xyxKBLIDS-36" style="edgeStyle=orthogonalEdgeStyle;rounded=0;orthogonalLoop=1;jettySize=auto;html=1;exitX=1;exitY=0.5;exitDx=0;exitDy=0;exitPerimeter=0;" edge="1" parent="1" source="bad-gQFQ_26xyxKBLIDS-16" target="bad-gQFQ_26xyxKBLIDS-35">
          <mxGeometry relative="1" as="geometry" />
        </mxCell>
        <mxCell id="bad-gQFQ_26xyxKBLIDS-16" value="Imprimir &quot;casado&quot;" style="shape=display;whiteSpace=wrap;html=1;fontSize=11;" vertex="1" parent="1">
          <mxGeometry x="480" y="305" width="70" height="30" as="geometry" />
        </mxCell>
        <mxCell id="bad-gQFQ_26xyxKBLIDS-21" value="Avaliar próxima variável" style="rounded=0;whiteSpace=wrap;html=1;" vertex="1" parent="1">
          <mxGeometry x="190" y="220" width="100" height="40" as="geometry" />
        </mxCell>
        <mxCell id="bad-gQFQ_26xyxKBLIDS-32" value="" style="edgeStyle=orthogonalEdgeStyle;rounded=0;orthogonalLoop=1;jettySize=auto;html=1;" edge="1" parent="1" source="bad-gQFQ_26xyxKBLIDS-23" target="bad-gQFQ_26xyxKBLIDS-9">
          <mxGeometry relative="1" as="geometry" />
        </mxCell>
        <mxCell id="bad-gQFQ_26xyxKBLIDS-23" value="Avaliar próxima variável" style="rounded=0;whiteSpace=wrap;html=1;" vertex="1" parent="1">
          <mxGeometry x="340" y="380" width="100" height="40" as="geometry" />
        </mxCell>
        <mxCell id="bad-gQFQ_26xyxKBLIDS-24" value="Avaliar próxima variável" style="rounded=0;whiteSpace=wrap;html=1;" vertex="1" parent="1">
          <mxGeometry x="190" y="460" width="100" height="40" as="geometry" />
        </mxCell>
        <mxCell id="bad-gQFQ_26xyxKBLIDS-29" value="" style="edgeStyle=orthogonalEdgeStyle;rounded=0;orthogonalLoop=1;jettySize=auto;html=1;" edge="1" parent="1" source="bad-gQFQ_26xyxKBLIDS-26" target="bad-gQFQ_26xyxKBLIDS-14">
          <mxGeometry relative="1" as="geometry" />
        </mxCell>
        <mxCell id="bad-gQFQ_26xyxKBLIDS-26" value="Se variável == D" style="strokeWidth=2;html=1;shape=mxgraph.flowchart.decision;whiteSpace=wrap;" vertex="1" parent="1">
          <mxGeometry x="335" y="540" width="110" height="60" as="geometry" />
        </mxCell>
        <mxCell id="bad-gQFQ_26xyxKBLIDS-30" style="edgeStyle=orthogonalEdgeStyle;rounded=0;orthogonalLoop=1;jettySize=auto;html=1;exitX=0.5;exitY=1;exitDx=0;exitDy=0;entryX=0;entryY=0.5;entryDx=0;entryDy=0;entryPerimeter=0;" edge="1" parent="1" source="bad-gQFQ_26xyxKBLIDS-21" target="bad-gQFQ_26xyxKBLIDS-10">
          <mxGeometry relative="1" as="geometry" />
        </mxCell>
        <mxCell id="bad-gQFQ_26xyxKBLIDS-34" style="edgeStyle=orthogonalEdgeStyle;rounded=0;orthogonalLoop=1;jettySize=auto;html=1;exitX=0.5;exitY=1;exitDx=0;exitDy=0;entryX=0;entryY=0.5;entryDx=0;entryDy=0;entryPerimeter=0;" edge="1" parent="1" source="bad-gQFQ_26xyxKBLIDS-24" target="bad-gQFQ_26xyxKBLIDS-26">
          <mxGeometry relative="1" as="geometry" />
        </mxCell>
        <mxCell id="bad-gQFQ_26xyxKBLIDS-42" value="" style="edgeStyle=orthogonalEdgeStyle;rounded=0;orthogonalLoop=1;jettySize=auto;html=1;" edge="1" parent="1" source="bad-gQFQ_26xyxKBLIDS-35" target="bad-gQFQ_26xyxKBLIDS-41">
          <mxGeometry relative="1" as="geometry" />
        </mxCell>
        <mxCell id="bad-gQFQ_26xyxKBLIDS-35" value="" style="ellipse;whiteSpace=wrap;html=1;aspect=fixed;" vertex="1" parent="1">
          <mxGeometry x="580" y="385" width="30" height="30" as="geometry" />
        </mxCell>
        <mxCell id="bad-gQFQ_26xyxKBLIDS-41" value="Fim" style="strokeWidth=2;html=1;shape=mxgraph.flowchart.terminator;whiteSpace=wrap;" vertex="1" parent="1">
          <mxGeometry x="640" y="375" width="140" height="50" as="geometry" />
        </mxCell>
      </root>
    </mxGraphModel>
  </diagram>
</mxfile>
